<svg width="28" height="28" viewBox="0 0 28 28" fill="none" xmlns="http://www.w3.org/2000/svg">
<path d="M12.7326 15.2661C12.5096 15.0436 12.2439 14.8685 11.9514 14.7514L2.69972 11.0414C2.58926 10.997 2.495 10.92 2.42959 10.8205C2.36418 10.7211 2.33076 10.604 2.33381 10.485C2.33686 10.3661 2.37623 10.2509 2.44664 10.1549C2.51705 10.0589 2.61514 9.9868 2.72772 9.94819L24.8944 2.36486C24.9978 2.32752 25.1096 2.32039 25.2169 2.34432C25.3242 2.36824 25.4224 2.42221 25.5001 2.49993C25.5779 2.57765 25.6318 2.6759 25.6558 2.78317C25.6797 2.89045 25.6726 3.00232 25.6352 3.10569L18.0519 25.2724C18.0133 25.3849 17.9412 25.483 17.8452 25.5534C17.7492 25.6239 17.634 25.6632 17.515 25.6663C17.3961 25.6693 17.279 25.6359 17.1795 25.5705C17.0801 25.5051 17.003 25.4108 16.9587 25.3004L13.2487 16.0464C13.1311 15.7541 12.9555 15.4887 12.7326 15.2661ZM12.7326 15.2661L25.4964 2.50486" stroke="#FFF1D0" stroke-width="2" stroke-linecap="round" stroke-linejoin="round"/>
</svg>
